name Run_200 01_newCOP3_v24.mot
datacolumns 19
datarows 84
range 2.658333 2.744792
DataType=double
version=3
OpenSimVersion=4.3-2021-08-27-4bc7ad9
endheader
time	R_ground_force_vx	R_ground_force_vy	R_ground_force_vz	R_ground_force_px	R_ground_force_py	R_ground_force_pz	L_ground_force_vx	L_ground_force_vy	L_ground_force_vz	L_ground_force_px	L_ground_force_py	L_ground_force_pz	R_ground_torque_x	R_ground_torque_y	R_ground_torque_z	L_ground_torque_x	L_ground_torque_y	L_ground_torque_z
2.658333	92.626656	800.6767579999999	27.396978	0.952085	0	-0.309039	0	0	0	0	0	0	0	-3.49577	0	0	0	0
2.659375	93.076324	785.9381100000001	27.656233	0.950464	0	-0.309108	0	0	0	0	0	0	0	-3.540468	0	0	0	0
2.660417	93.459839	771.209106	27.863342	0.948842	0	-0.309178	0	0	0	0	0	0	0	-3.5758	0	0	0	0
2.661458	93.77552799999999	756.495239	28.016581	0.947222	0	-0.309249	0	0	0	0	0	0	0	-3.601925	0	0	0	0
2.6625	94.021461	741.802673	28.114819	0.945603	0	-0.309321	0	0	0	0	0	0	0	-3.619028	0	0	0	0
2.663542	94.19548	727.137695	28.157536	0.943986	0	-0.309396	0	0	0	0	0	0	0	-3.627315	0	0	0	0
2.664583	94.295204	712.50708	28.144848	0.942373	0	-0.309472	0	0	0	0	0	0	0	-3.627018	0	0	0	0
2.665625	94.31817599999999	697.9178470000001	28.07749	0.940765	0	-0.30955	0	0	0	0	0	0	0	-3.618389	0	0	0	0
2.666667	94.261894	683.3773190000001	27.956812	0.9391620000000001	0	-0.309629	0	0	0	0	0	0	0	-3.6017	0	0	0	0
2.667708	94.123993	668.893005	27.784744	0.937566	0	-0.30971	0	0	0	0	0	0	0	-3.577245	0	0	0	0
2.66875	93.902306	654.472717	27.563749	0.935978	0	-0.309792	0	0	0	0	0	0	0	-3.545334	0	0	0	0
2.669792	93.595032	640.124329	27.296782	0.934398	0	-0.309874	0	0	0	0	0	0	0	-3.506294	0	0	0	0
2.670833	93.200851	625.8560179999999	26.987213	0.932828	0	-0.309956	0	0	0	0	0	0	0	-3.460465	0	0	0	0
2.671875	92.718994	611.6759029999999	26.638773	0.931267	0	-0.310035	0	0	0	0	0	0	0	-3.408204	0	0	0	0
2.672917	92.149345	597.592529	26.255459	0.929716	0	-0.310112	0	0	0	0	0	0	0	-3.349876	0	0	0	0
2.673958	91.492485	583.6142579999999	25.841471	0.928176	0	-0.310184	0	0	0	0	0	0	0	-3.285859	0	0	0	0
2.675	90.749725	569.749756	25.401114	0.9266450000000001	0	-0.310251	0	0	0	0	0	0	0	-3.216537	0	0	0	0
2.676042	89.923042	556.00769	24.93873	0.9251239999999999	0	-0.31031	0	0	0	0	0	0	0	-3.142304	0	0	0	0
2.677083	89.01509900000001	542.396606	24.458605	0.923613	0	-0.31036	0	0	0	0	0	0	0	-3.063555	0	0	0	0
2.678125	88.029129	528.925293	23.964899	0.92211	0	-0.310399	0	0	0	0	0	0	0	-2.98069	0	0	0	0
2.679167	86.968857	515.602295	23.461571	0.920616	0	-0.310426	0	0	0	0	0	0	0	-2.894112	0	0	0	0
2.680208	85.838425	502.436005	22.95232	0.91913	0	-0.310439	0	0	0	0	0	0	0	-2.804223	0	0	0	0
2.68125	84.642242	489.43454	22.440523	0.917651	0	-0.310437	0	0	0	0	0	0	0	-2.711424	0	0	0	0
2.682292	83.38490299999999	476.605682	21.929192	0.916178	0	-0.310417	0	0	0	0	0	0	0	-2.616112	0	0	0	0
2.683333	82.07107499999999	463.956818	21.420931	0.9147110000000001	0	-0.31038	0	0	0	0	0	0	0	-2.518681	0	0	0	0
2.684375	80.705414	451.49469	20.917923	0.91325	0	-0.310323	0	0	0	0	0	0	0	-2.419519	0	0	0	0
2.685417	79.292458	439.225403	20.421906	0.911794	0	-0.310246	0	0	0	0	0	0	0	-2.319006	0	0	0	0
2.686458	77.83659400000001	427.154419	19.934168	0.910344	0	-0.310149	0	0	0	0	0	0	0	-2.217517	0	0	0	0
2.6875	76.341988	415.286285	19.455564	0.908899	0	-0.31003	0	0	0	0	0	0	0	-2.115415	0	0	0	0
2.688542	74.812538	403.624847	18.986528	0.907461	0	-0.309891	0	0	0	0	0	0	0	-2.013054	0	0	0	0
2.689583	73.251884	392.173096	18.527098	0.90603	0	-0.309731	0	0	0	0	0	0	0	-1.910776	0	0	0	0
2.690625	71.663353	380.933136	18.076952	0.904608	0	-0.309551	0	0	0	0	0	0	0	-1.808913	0	0	0	0
2.691667	70.050026	369.906342	17.635462	0.903196	0	-0.309352	0	0	0	0	0	0	0	-1.707783	0	0	0	0
2.692708	68.414711	359.093414	17.201727	0.901797	0	-0.309135	0	0	0	0	0	0	0	-1.607691	0	0	0	0
2.69375	66.759979	348.494324	16.774641	0.900414	0	-0.308901	0	0	0	0	0	0	0	-1.508931	0	0	0	0
2.694792	65.088219	338.108551	16.352945	0.899047	0	-0.308653	0	0	0	0	0	0	0	-1.411778	0	0	0	0
2.695833	63.401684	327.93515	15.935282	0.897701	0	-0.308391	0	0	0	0	0	0	0	-1.316498	0	0	0	0
2.696875	61.702534	317.972839	15.520263	0.896378	0	-0.308117	0	0	0	0	0	0	0	-1.223338	0	0	0	0
2.697917	59.992897	308.220062	15.106522	0.895081	0	-0.307835	0	0	0	0	0	0	0	-1.132531	0	0	0	0
2.698958	58.274929	298.675232	14.692769	0.893813	0	-0.307545	0	0	0	0	0	0	0	-1.044298	0	0	0	0
2.7	56.550854	289.336639	14.277848	0.892578	0	-0.307249	0	0	0	0	0	0	0	-0.958839	0	0	0	0
2.701042	54.823036	280.202728	13.860773	0.891377	0	-0.306949	0	0	0	0	0	0	0	-0.876345	0	0	0	0
2.702083	53.093979	271.272003	13.440777	0.890213	0	-0.306647	0	0	0	0	0	0	0	-0.796986	0	0	0	0
2.703125	51.366398	262.54303	13.017337	0.889089	0	-0.306345	0	0	0	0	0	0	0	-0.72092	0	0	0	0
2.704167	49.6432	254.014679	12.590204	0.888007	0	-0.306043	0	0	0	0	0	0	0	-0.648288	0	0	0	0
2.705208	47.927502	245.685822	12.159418	0.886968	0	-0.305743	0	0	0	0	0	0	0	-0.579218	0	0	0	0
2.70625	46.22263	237.555481	11.725314	0.885974	0	-0.305445	0	0	0	0	0	0	0	-0.513819	0	0	0	0
2.707292	44.532078	229.622742	11.288525	0.885024	0	-0.30515	0	0	0	0	0	0	0	-0.452187	0	0	0	0
2.708333	42.859497	221.886658	10.849968	0.88412	0	-0.304857	0	0	0	0	0	0	0	-0.394404	0	0	0	0
2.709375	41.208645	214.346161	10.410832	0.883259	0	-0.304566	0	0	0	0	0	0	0	-0.340536	0	0	0	0
2.710417	39.583347	207.000046	9.972550999999999	0.882441	0	-0.304276	0	0	0	0	0	0	0	-0.290632	0	0	0	0
2.711458	37.987423	199.846878	9.536775	0.881663	0	-0.303985	0	0	0	0	0	0	0	-0.24473	0	0	0	0
2.7125	36.424652	192.884903	9.105325000000001	0.880922	0	-0.303692	0	0	0	0	0	0	0	-0.202851	0	0	0	0
2.713542	34.898705	186.112045	8.680161	0.8802140000000001	0	-0.303395	0	0	0	0	0	0	0	-0.165003	0	0	0	0
2.714583	33.413063	179.525864	8.26333	0.879533	0	-0.303089	0	0	0	0	0	0	0	-0.131179	0	0	0	0
2.715625	31.970978	173.123581	7.856917	0.878876	0	-0.302772	0	0	0	0	0	0	0	-0.10136	0	0	0	0
2.716667	30.575403	166.902008	7.462995	0.878235	0	-0.302439	0	0	0	0	0	0	0	-0.07550900000000001	0	0	0	0
2.717708	29.228922	160.857712	7.083574	0.8776040000000001	0	-0.302086	0	0	0	0	0	0	0	-0.053581	0	0	0	0
2.71875	27.933691	154.986938	6.720555	0.876977	0	-0.301707	0	0	0	0	0	0	0	-0.035515	0	0	0	0
2.719792	26.691397	149.285767	6.375677	0.876348	0	-0.301298	0	0	0	0	0	0	0	-0.021237	0	0	0	0
2.720833	25.503193	143.750122	6.050476	0.87571	0	-0.300853	0	0	0	0	0	0	0	-0.010662	0	0	0	0
2.721875	24.369669	138.375854	5.746248	0.8750599999999999	0	-0.300364	0	0	0	0	0	0	0	-0.003693	0	0	0	0
2.722917	23.290815	133.158813	5.464009	0.874394	0	-0.299826	0	0	0	0	0	0	0	-0.000219	0	0	0	0
2.723958	22.266016	128.094925	5.204476	0.873708	0	-0.299232	0	0	0	0	0	0	0	-0.000122	0	0	0	0
2.725	21.294039	123.180199	4.96804	0.8730019999999999	0	-0.298576	0	0	0	0	0	0	0	-0.003271	0	0	0	0
2.726042	20.373068	118.410797	4.754756	0.872278	0	-0.297852	0	0	0	0	0	0	0	-0.009525	0	0	0	0
2.727083	19.500738	113.783073	4.564341	0.871537	0	-0.297053	0	0	0	0	0	0	0	-0.018735	0	0	0	0
2.728125	18.6742	109.293556	4.396172	0.870785	0	-0.296174	0	0	0	0	0	0	0	-0.030743	0	0	0	0
2.729167	17.890196	104.938957	4.249302	0.870028	0	-0.29521	0	0	0	0	0	0	0	-0.045382	0	0	0	0
2.730208	17.145164	100.716179	4.122478	0.869275	0	-0.294158	0	0	0	0	0	0	0	-0.062479	0	0	0	0
2.73125	16.435349	96.622253	4.014164	0.8685349999999999	0	-0.293013	0	0	0	0	0	0	0	-0.081855	0	0	0	0
2.732292	15.756918	92.65434999999999	3.922579	0.867819	0	-0.291773	0	0	0	0	0	0	0	-0.103324	0	0	0	0
2.733333	15.106083	88.809738	3.845729	0.867138	0	-0.290436	0	0	0	0	0	0	0	-0.126695	0	0	0	0
2.734375	14.479218	85.08573199999999	3.781456	0.866503	0	-0.289003	0	0	0	0	0	0	0	-0.151776	0	0	0	0
2.735417	13.872963	81.47968299999999	3.727476	0.865924	0	-0.287474	0	0	0	0	0	0	0	-0.178368	0	0	0	0
2.736458	13.284309	77.988953	3.681437	0.865411	0	-0.28585	0	0	0	0	0	0	0	-0.206272	0	0	0	0
2.7375	12.710672	74.61088599999999	3.64096	0.86497	0	-0.284135	0	0	0	0	0	0	0	-0.235287	0	0	0	0
2.738542	12.14993	71.34277299999999	3.603692	0.864607	0	-0.282333	0	0	0	0	0	0	0	-0.265211	0	0	0	0
2.739583	11.600437	68.18188499999999	3.567351	0.864325	0	-0.280447	0	0	0	0	0	0	0	-0.295843	0	0	0	0
2.740625	11.061027	65.12545	3.529776	0.8641219999999999	0	-0.278485	0	0	0	0	0	0	0	-0.326983	0	0	0	0
2.741667	10.530968	62.170643	3.488964	0.863995	0	-0.276453	0	0	0	0	0	0	0	-0.358431	0	0	0	0
2.742708	10.009926	59.314613	3.443108	0.863938	0	-0.274358	0	0	0	0	0	0	0	-0.389993	0	0	0	0
2.74375	9.497889000000001	56.554489	3.39063	0.863941	0	-0.272208	0	0	0	0	0	0	0	-0.421475	0	0	0	0
2.744792	8.995104	53.887394	3.330202	0.863992	0	-0.270011	0	0	0	0	0	0	0	-0.452689	0	0	0	0
